<svg xmlns="http://www.w3.org/2000/svg" xmlns:xlink="http://www.w3.org/1999/xlink" width="840" height="363.94"><rect width="840" height="363.94" rx="5" ry="5" class="a"/><svg y="0%" x="0%"><circle cx="20" cy="20" r="6" fill="#ff5f58"/><circle cx="40" cy="20" r="6" fill="#ffbd2e"/><circle cx="60" cy="20" r="6" fill="#18c132"/></svg><svg height="303.94" viewBox="0 0 80 30.394" width="800" x="15" xmlns="http://www.w3.org/2000/svg" xmlns:xlink="http://www.w3.org/1999/xlink" y="50"><style>@keyframes k{0%{transform:translateX(0)}.5%{transform:translateX(-80px)}7.7%{transform:translateX(-160px)}8.7%{transform:translateX(-240px)}11%{transform:translateX(-320px)}12%{transform:translateX(-400px)}14.4%{transform:translateX(-480px)}16.6%{transform:translateX(-560px)}19.2%{transform:translateX(-640px)}21.8%{transform:translateX(-720px)}24.5%{transform:translateX(-800px)}25.9%{transform:translateX(-880px)}26.7%{transform:translateX(-960px)}28.4%{transform:translateX(-1040px)}29.4%{transform:translateX(-1120px)}30.8%{transform:translateX(-1200px)}33.1%{transform:translateX(-1280px)}33.7%{transform:translateX(-1360px)}35.2%{transform:translateX(-1440px)}35.7%{transform:translateX(-1520px)}37%{transform:translateX(-1600px)}38.2%{transform:translateX(-1680px)}41.5%{transform:translateX(-1760px)}42.6%{transform:translateX(-1840px)}44.1%{transform:translateX(-1920px)}46.7%{transform:translateX(-2000px)}48.1%{transform:translateX(-2080px)}49.5%{transform:translateX(-2160px)}51.4%{transform:translateX(-2240px)}52.6%{transform:translateX(-2320px)}54.6%{transform:translateX(-2400px)}56.1%{transform:translateX(-2480px)}58%{transform:translateX(-2560px)}60.4%{transform:translateX(-2640px)}60.7%{transform:translateX(-2880px)}61.6%{transform:translateX(-3040px)}62.6%{transform:translateX(-3120px)}64.4%{transform:translateX(-3280px)}65.4%{transform:translateX(-3360px)}67.3%{transform:translateX(-3440px)}68.7%{transform:translateX(-3520px)}76%{transform:translateX(-3600px)}83.7%{transform:translateX(-3680px)}83.8%{transform:translateX(-3760px)}84.5%{transform:translateX(-3920px)}to{transform:translateX(-4000px)}}.a{fill:#282d35}.f{fill:#b9c0cb}.g{fill:#a8cc8c;font-weight:700}.h{fill:#d290e4}</style><g font-size="1.67" font-family="Monaco,Consolas,Menlo,'Bitstream Vera Sans Mono','Powerline Symbols',monospace"><defs><symbol id="1"><text y="1.67" class="f">$</text></symbol><symbol id="2"><text y="1.67" class="f">$</text><text x="2.004" y="1.67" class="f">CLUSTER=production</text></symbol><symbol id="3"><text y="1.67" class="f">$</text><text x="2.004" y="1.67" class="f">CLUSTER=production</text><text x="21.042" y="1.67" class="f">toast</text></symbol><symbol id="4"><text y="1.67" class="f">$</text><text x="2.004" y="1.67" class="f">CLUSTER=production</text><text x="21.042" y="1.67" class="f">toast</text><text x="27.054" y="1.67" class="f">deploy</text></symbol><symbol id="5"><text y="1.67" class="g">[INFO]</text><text x="7.014" y="1.67" class="f">Ready</text><text x="13.026" y="1.67" class="f">to</text><text x="16.032" y="1.67" class="f">run</text><text x="20.04" y="1.67" class="f">1</text><text x="22.044" y="1.67" class="f">task:</text><text x="28.056" y="1.67" class="h">deploy</text><text x="34.068" y="1.67" class="f">.</text></symbol><symbol id="6"><text y="1.67" class="g">[INFO]</text><text x="7.014" y="1.67" class="f">Running</text><text x="15.03" y="1.67" class="f">task</text><text x="20.04" y="1.67" class="h">deploy</text><text x="26.052" y="1.67" class="f">…</text></symbol><symbol id="7"><text y="1.67" class="f">Deploying</text><text x="10.02" y="1.67" class="f">to</text><text x="13.026" y="1.67" class="f">production...</text></symbol><symbol id="8"><text y="1.67" class="g">[INFO]</text><text x="7.014" y="1.67" class="f">Done.</text></symbol><symbol id="a"><path fill="transparent" d="M0 0h80v14H0z"/></symbol><symbol id="b"><path fill="#6f7683" d="M0 0h1.102v2.171H0z"/></symbol></defs><path class="a" d="M0 0h80v30.394H0z"/><g style="animation-duration:7.339661s;animation-iteration-count:infinite;animation-name:k;animation-timing-function:steps(1,end)"><svg width="4080"><svg><use xlink:href="#a"/><use xlink:href="#b" x="-.004"/></svg><svg x="80"><use xlink:href="#a"/><use xlink:href="#b" x="1.996"/><use xlink:href="#1"/></svg><svg x="160"><use xlink:href="#a"/><use xlink:href="#b" x="2.996"/><text y="1.67" class="f">$</text><text x="2.004" y="1.67" class="f">C</text></svg><svg x="240"><use xlink:href="#a"/><use xlink:href="#b" x="3.996"/><text y="1.67" class="f">$</text><text x="2.004" y="1.67" class="f">CL</text></svg><svg x="320"><use xlink:href="#a"/><use xlink:href="#b" x="4.996"/><text y="1.67" class="f">$</text><text x="2.004" y="1.67" class="f">CLU</text></svg><svg x="400"><use xlink:href="#a"/><use xlink:href="#b" x="5.996"/><text y="1.67" class="f">$</text><text x="2.004" y="1.67" class="f">CLUS</text></svg><svg x="480"><use xlink:href="#a"/><use xlink:href="#b" x="6.996"/><text y="1.67" class="f">$</text><text x="2.004" y="1.67" class="f">CLUST</text></svg><svg x="560"><use xlink:href="#a"/><use xlink:href="#b" x="7.996"/><text y="1.67" class="f">$</text><text x="2.004" y="1.67" class="f">CLUSTE</text></svg><svg x="640"><use xlink:href="#a"/><use xlink:href="#b" x="8.996"/><text y="1.67" class="f">$</text><text x="2.004" y="1.67" class="f">CLUSTER</text></svg><svg x="720"><use xlink:href="#a"/><use xlink:href="#b" x="9.996"/><text y="1.67" class="f">$</text><text x="2.004" y="1.67" class="f">CLUSTER=</text></svg><svg x="800"><use xlink:href="#a"/><use xlink:href="#b" x="10.996"/><text y="1.67" class="f">$</text><text x="2.004" y="1.67" class="f">CLUSTER=p</text></svg><svg x="880"><use xlink:href="#a"/><use xlink:href="#b" x="11.996"/><text y="1.67" class="f">$</text><text x="2.004" y="1.67" class="f">CLUSTER=pr</text></svg><svg x="960"><use xlink:href="#a"/><use xlink:href="#b" x="12.996"/><text y="1.67" class="f">$</text><text x="2.004" y="1.67" class="f">CLUSTER=pro</text></svg><svg x="1040"><use xlink:href="#a"/><use xlink:href="#b" x="13.996"/><text y="1.67" class="f">$</text><text x="2.004" y="1.67" class="f">CLUSTER=prod</text></svg><svg x="1120"><use xlink:href="#a"/><use xlink:href="#b" x="14.996"/><text y="1.67" class="f">$</text><text x="2.004" y="1.67" class="f">CLUSTER=produ</text></svg><svg x="1200"><use xlink:href="#a"/><use xlink:href="#b" x="15.996"/><text y="1.67" class="f">$</text><text x="2.004" y="1.67" class="f">CLUSTER=produc</text></svg><svg x="1280"><use xlink:href="#a"/><use xlink:href="#b" x="16.996"/><text y="1.67" class="f">$</text><text x="2.004" y="1.67" class="f">CLUSTER=product</text></svg><svg x="1360"><use xlink:href="#a"/><use xlink:href="#b" x="17.996"/><text y="1.67" class="f">$</text><text x="2.004" y="1.67" class="f">CLUSTER=producti</text></svg><svg x="1440"><use xlink:href="#a"/><use xlink:href="#b" x="18.996"/><text y="1.67" class="f">$</text><text x="2.004" y="1.67" class="f">CLUSTER=productio</text></svg><svg x="1520"><use xlink:href="#a"/><use xlink:href="#b" x="19.996"/><use xlink:href="#2"/></svg><svg x="1600"><use xlink:href="#a"/><use xlink:href="#b" x="20.996"/><use xlink:href="#2"/></svg><svg x="1680"><use xlink:href="#a"/><use xlink:href="#b" x="21.996"/><text y="1.67" class="f">$</text><text x="2.004" y="1.67" class="f">CLUSTER=production</text><text x="21.042" y="1.67" class="f">t</text></svg><svg x="1760"><use xlink:href="#a"/><use xlink:href="#b" x="22.996"/><text y="1.67" class="f">$</text><text x="2.004" y="1.67" class="f">CLUSTER=production</text><text x="21.042" y="1.67" class="f">to</text></svg><svg x="1840"><use xlink:href="#a"/><use xlink:href="#b" x="23.996"/><text y="1.67" class="f">$</text><text x="2.004" y="1.67" class="f">CLUSTER=production</text><text x="21.042" y="1.67" class="f">toa</text></svg><svg x="1920"><use xlink:href="#a"/><use xlink:href="#b" x="24.996"/><text y="1.67" class="f">$</text><text x="2.004" y="1.67" class="f">CLUSTER=production</text><text x="21.042" y="1.67" class="f">toas</text></svg><svg x="2000"><use xlink:href="#a"/><use xlink:href="#b" x="25.996"/><use xlink:href="#3"/></svg><svg x="2080"><use xlink:href="#a"/><use xlink:href="#b" x="26.996"/><use xlink:href="#3"/></svg><svg x="2160"><use xlink:href="#a"/><use xlink:href="#b" x="27.996"/><text y="1.67" class="f">$</text><text x="2.004" y="1.67" class="f">CLUSTER=production</text><text x="21.042" y="1.67" class="f">toast</text><text x="27.054" y="1.67" class="f">d</text></svg><svg x="2240"><use xlink:href="#a"/><use xlink:href="#b" x="28.996"/><text y="1.67" class="f">$</text><text x="2.004" y="1.67" class="f">CLUSTER=production</text><text x="21.042" y="1.67" class="f">toast</text><text x="27.054" y="1.67" class="f">de</text></svg><svg x="2320"><use xlink:href="#a"/><use xlink:href="#b" x="29.996"/><text y="1.67" class="f">$</text><text x="2.004" y="1.67" class="f">CLUSTER=production</text><text x="21.042" y="1.67" class="f">toast</text><text x="27.054" y="1.67" class="f">dep</text></svg><svg x="2400"><use xlink:href="#a"/><use xlink:href="#b" x="30.996"/><text y="1.67" class="f">$</text><text x="2.004" y="1.67" class="f">CLUSTER=production</text><text x="21.042" y="1.67" class="f">toast</text><text x="27.054" y="1.67" class="f">depl</text></svg><svg x="2480"><use xlink:href="#a"/><use xlink:href="#b" x="31.996"/><text y="1.67" class="f">$</text><text x="2.004" y="1.67" class="f">CLUSTER=production</text><text x="21.042" y="1.67" class="f">toast</text><text x="27.054" y="1.67" class="f">deplo</text></svg><svg x="2560"><use xlink:href="#a"/><use xlink:href="#b" x="32.996"/><use xlink:href="#4"/></svg><svg x="2640"><use xlink:href="#a"/><use xlink:href="#b" x="-.004" y="2.146"/><use xlink:href="#4"/></svg><svg x="2720"><use xlink:href="#a"/><use xlink:href="#b" x="-.004" y="6.488"/><use xlink:href="#4"/><use xlink:href="#5" y="2.171"/><use xlink:href="#6" y="4.342"/></svg><svg x="2800"><use xlink:href="#a"/><use xlink:href="#b" x="-.004" y="6.488"/><use xlink:href="#4"/><use xlink:href="#5" y="2.171"/><use xlink:href="#6" y="4.342"/></svg><svg x="2880"><use xlink:href="#a"/><use xlink:href="#b" x="-.004" y="8.659"/><use xlink:href="#4"/><use xlink:href="#5" y="2.171"/><use xlink:href="#6" y="4.342"/><text y="8.183" class="f">⠁</text><text x="2.004" y="8.183" class="f">Checking</text><text x="11.022" y="8.183" class="f">existence</text><text x="21.042" y="8.183" class="f">of</text><text x="24.048" y="8.183" class="f">image…</text></svg><svg x="2960"><use xlink:href="#a"/><use xlink:href="#b" x="-.004" y="6.488"/><use xlink:href="#4"/><use xlink:href="#5" y="2.171"/><use xlink:href="#6" y="4.342"/></svg><svg x="3040"><use xlink:href="#a"/><use xlink:href="#b" x="-.004" y="8.659"/><use xlink:href="#4"/><use xlink:href="#5" y="2.171"/><use xlink:href="#6" y="4.342"/><text y="8.183" class="f">⠁</text><text x="2.004" y="8.183" class="f">Creating</text><text x="11.022" y="8.183" class="f">container…</text></svg><svg x="3120"><use xlink:href="#a"/><use xlink:href="#b" x="-.004" y="8.659"/><use xlink:href="#4"/><use xlink:href="#5" y="2.171"/><use xlink:href="#6" y="4.342"/><text y="8.183" class="f">⠂</text><text x="2.004" y="8.183" class="f">Creating</text><text x="11.022" y="8.183" class="f">container…</text></svg><svg x="3200"><use xlink:href="#a"/><use xlink:href="#b" x="-.004" y="6.488"/><use xlink:href="#4"/><use xlink:href="#5" y="2.171"/><use xlink:href="#6" y="4.342"/></svg><svg x="3280"><use xlink:href="#a"/><use xlink:href="#b" x="-.004" y="8.659"/><use xlink:href="#4"/><use xlink:href="#5" y="2.171"/><use xlink:href="#6" y="4.342"/><text y="8.183" class="f">⠁</text><text x="2.004" y="8.183" class="f">Copying</text><text x="10.02" y="8.183" class="f">files</text><text x="16.032" y="8.183" class="f">into</text><text x="21.042" y="8.183" class="f">container…</text></svg><svg x="3360"><use xlink:href="#a"/><use xlink:href="#b" x="-.004" y="8.659"/><use xlink:href="#4"/><use xlink:href="#5" y="2.171"/><use xlink:href="#6" y="4.342"/><text y="8.183" class="f">⠂</text><text x="2.004" y="8.183" class="f">Copying</text><text x="10.02" y="8.183" class="f">files</text><text x="16.032" y="8.183" class="f">into</text><text x="21.042" y="8.183" class="f">container…</text></svg><svg x="3440"><use xlink:href="#a"/><use xlink:href="#b" x="-.004" y="8.659"/><use xlink:href="#4"/><use xlink:href="#5" y="2.171"/><use xlink:href="#6" y="4.342"/><text y="8.183" class="f">⠲</text><text x="2.004" y="8.183" class="f">Copying</text><text x="10.02" y="8.183" class="f">files</text><text x="16.032" y="8.183" class="f">into</text><text x="21.042" y="8.183" class="f">container…</text></svg><svg x="3520"><use xlink:href="#a"/><use xlink:href="#b" x="-.004" y="6.488"/><use xlink:href="#4"/><use xlink:href="#5" y="2.171"/><use xlink:href="#6" y="4.342"/></svg><svg x="3600"><use xlink:href="#a"/><use xlink:href="#b" x="-.004" y="8.659"/><use xlink:href="#4"/><use xlink:href="#5" y="2.171"/><use xlink:href="#6" y="4.342"/><use xlink:href="#7" y="6.513"/></svg><svg x="3680"><use xlink:href="#a"/><use xlink:href="#b" x="-.004" y="10.83"/><use xlink:href="#4"/><use xlink:href="#5" y="2.171"/><use xlink:href="#6" y="4.342"/><use xlink:href="#7" y="6.513"/><use xlink:href="#8" y="8.684"/></svg><svg x="3760"><use xlink:href="#a"/><use xlink:href="#b" x="-.004" y="13.001"/><use xlink:href="#4"/><use xlink:href="#5" y="2.171"/><use xlink:href="#6" y="4.342"/><use xlink:href="#7" y="6.513"/><use xlink:href="#8" y="8.684"/><text y="12.525" class="f">⠁</text><text x="2.004" y="12.525" class="f">Deleting</text><text x="11.022" y="12.525" class="f">container…</text></svg><svg x="3840"><use xlink:href="#a"/><use xlink:href="#b" x="-.004" y="10.83"/><use xlink:href="#4"/><use xlink:href="#5" y="2.171"/><use xlink:href="#6" y="4.342"/><use xlink:href="#7" y="6.513"/><use xlink:href="#8" y="8.684"/></svg><svg x="3920"><use xlink:href="#a"/><use xlink:href="#b" x="1.996" y="10.83"/><use xlink:href="#4"/><use xlink:href="#5" y="2.171"/><use xlink:href="#6" y="4.342"/><use xlink:href="#7" y="6.513"/><use xlink:href="#8" y="8.684"/><use xlink:href="#1" y="10.855"/></svg><svg x="4000"><use xlink:href="#a"/><use xlink:href="#b" x="-.004" y="13.001"/><use xlink:href="#4"/><use xlink:href="#5" y="2.171"/><use xlink:href="#6" y="4.342"/><use xlink:href="#7" y="6.513"/><use xlink:href="#8" y="8.684"/><text y="12.525" class="f">$</text><text x="2.004" y="12.525" class="f">exit</text></svg></svg></g></g></svg></svg>