<svg xmlns="http://www.w3.org/2000/svg" xmlns:xlink="http://www.w3.org/1999/xlink" width="840" height="363.94"><rect width="840" height="363.94" rx="5" ry="5" class="a"/><svg y="0%" x="0%"><circle cx="20" cy="20" r="6" fill="#ff5f58"/><circle cx="40" cy="20" r="6" fill="#ffbd2e"/><circle cx="60" cy="20" r="6" fill="#18c132"/></svg><svg height="303.94" viewBox="0 0 80 30.394" width="800" x="15" xmlns="http://www.w3.org/2000/svg" xmlns:xlink="http://www.w3.org/1999/xlink" y="50"><style>@keyframes k{0%{transform:translateX(0)}8%{transform:translateX(-80px)}14.3%{transform:translateX(-160px)}15.4%{transform:translateX(-240px)}16.9%{transform:translateX(-320px)}18.8%{transform:translateX(-400px)}21.2%{transform:translateX(-480px)}23.9%{transform:translateX(-560px)}24.1%{transform:translateX(-800px)}25%{transform:translateX(-1040px)}25.3%{transform:translateX(-1200px)}26.4%{transform:translateX(-1360px)}27.1%{transform:translateX(-1520px)}28.1%{transform:translateX(-1600px)}30.4%{transform:translateX(-1760px)}31.5%{transform:translateX(-1840px)}33.5%{transform:translateX(-1920px)}35.1%{transform:translateX(-2000px)}52.3%{transform:translateX(-2160px)}52.6%{transform:translateX(-2320px)}53.6%{transform:translateX(-2480px)}54.7%{transform:translateX(-2560px)}56.8%{transform:translateX(-2640px)}58.3%{transform:translateX(-2720px)}59.8%{transform:translateX(-2800px)}61.4%{transform:translateX(-2880px)}62.9%{transform:translateX(-2960px)}64.4%{transform:translateX(-3040px)}73%{transform:translateX(-3120px)}82.2%{transform:translateX(-3200px)}83.3%{transform:translateX(-3360px)}to{transform:translateX(-3440px)}}.a{fill:#282d35}.f{fill:#b9c0cb}.g{fill:#a8cc8c;font-weight:700}.h{fill:#d290e4}</style><g font-size="1.67" font-family="Monaco,Consolas,Menlo,'Bitstream Vera Sans Mono','Powerline Symbols',monospace"><defs><symbol id="1"><text y="1.67" class="f">$</text></symbol><symbol id="2"><text y="1.67" class="f">$</text><text x="2.004" y="1.67" class="f">toast</text></symbol><symbol id="3"><text y="1.67" class="g">[INFO]</text><text x="7.014" y="1.67" class="f">Ready</text><text x="13.026" y="1.67" class="f">to</text><text x="16.032" y="1.67" class="f">run</text><text x="20.04" y="1.67" class="f">3</text><text x="22.044" y="1.67" class="f">tasks:</text><text x="29.058" y="1.67" class="h">install_gcc</text><text x="40.08" y="1.67" class="f">,</text><text x="42.084" y="1.67" class="h">build</text><text x="47.094" y="1.67" class="f">,</text><text x="49.098" y="1.67" class="f">and</text><text x="53.106" y="1.67" class="h">run</text><text x="56.112" y="1.67" class="f">.</text></symbol><symbol id="4"><text y="1.67" class="g">[INFO]</text><text x="7.014" y="1.67" class="f">Running</text><text x="15.03" y="1.67" class="f">task</text><text x="20.04" y="1.67" class="h">install_gcc</text><text x="31.062" y="1.67" class="f">…</text></symbol><symbol id="5"><text y="1.67" class="f">⠁</text><text x="2.004" y="1.67" class="f">Checking</text><text x="11.022" y="1.67" class="f">existence</text><text x="21.042" y="1.67" class="f">of</text><text x="24.048" y="1.67" class="f">image…</text></symbol><symbol id="6"><text y="1.67" class="g">[INFO]</text><text x="7.014" y="1.67" class="f">Running</text><text x="15.03" y="1.67" class="f">task</text><text x="20.04" y="1.67" class="h">build</text><text x="25.05" y="1.67" class="f">…</text></symbol><symbol id="7"><text y="1.67" class="f">⠁</text><text x="2.004" y="1.67" class="f">Reading</text><text x="10.02" y="1.67" class="f">files…</text></symbol><symbol id="8"><text y="1.67" class="f">⠁</text><text x="2.004" y="1.67" class="f">Copying</text><text x="10.02" y="1.67" class="f">files</text><text x="16.032" y="1.67" class="f">into</text><text x="21.042" y="1.67" class="f">container…</text></symbol><symbol id="9"><text y="1.67" class="f">⠂</text><text x="2.004" y="1.67" class="f">Copying</text><text x="10.02" y="1.67" class="f">files</text><text x="16.032" y="1.67" class="f">into</text><text x="21.042" y="1.67" class="f">container…</text></symbol><symbol id="10"><text y="1.67" class="f">⠲</text><text x="2.004" y="1.67" class="f">Copying</text><text x="10.02" y="1.67" class="f">files</text><text x="16.032" y="1.67" class="f">into</text><text x="21.042" y="1.67" class="f">container…</text></symbol><symbol id="11"><text y="1.67" class="g">[INFO]</text><text x="7.014" y="1.67" class="f">Running</text><text x="15.03" y="1.67" class="f">task</text><text x="20.04" y="1.67" class="h">run</text><text x="23.046" y="1.67" class="f">…</text></symbol><symbol id="12"><text y="1.67" class="f">⠄</text><text x="2.004" y="1.67" class="f">Copying</text><text x="10.02" y="1.67" class="f">files</text><text x="16.032" y="1.67" class="f">into</text><text x="21.042" y="1.67" class="f">container…</text></symbol><symbol id="13"><text y="1.67" class="f">Hello,</text><text x="7.014" y="1.67" class="f">World!</text></symbol><symbol id="14"><text y="1.67" class="g">[INFO]</text><text x="7.014" y="1.67" class="f">Done.</text></symbol><symbol id="a"><path fill="transparent" d="M0 0h80v14H0z"/></symbol><symbol id="b"><path fill="#6f7683" d="M0 0h1.102v2.171H0z"/></symbol></defs><path class="a" d="M0 0h80v30.394H0z"/><g style="animation-duration:6.664224s;animation-iteration-count:infinite;animation-name:k;animation-timing-function:steps(1,end)"><svg width="3520"><svg><use xlink:href="#a"/><use xlink:href="#b" x="-.004"/></svg><svg x="80"><use xlink:href="#a"/><use xlink:href="#b" x="1.996"/><use xlink:href="#1"/></svg><svg x="160"><use xlink:href="#a"/><use xlink:href="#b" x="2.996"/><text y="1.67" class="f">$</text><text x="2.004" y="1.67" class="f">t</text></svg><svg x="240"><use xlink:href="#a"/><use xlink:href="#b" x="3.996"/><text y="1.67" class="f">$</text><text x="2.004" y="1.67" class="f">to</text></svg><svg x="320"><use xlink:href="#a"/><use xlink:href="#b" x="4.996"/><text y="1.67" class="f">$</text><text x="2.004" y="1.67" class="f">toa</text></svg><svg x="400"><use xlink:href="#a"/><use xlink:href="#b" x="5.996"/><text y="1.67" class="f">$</text><text x="2.004" y="1.67" class="f">toas</text></svg><svg x="480"><use xlink:href="#a"/><use xlink:href="#b" x="6.996"/><use xlink:href="#2"/></svg><svg x="560"><use xlink:href="#a"/><use xlink:href="#b" x="-.004" y="2.146"/><use xlink:href="#2"/></svg><svg x="640"><use xlink:href="#a"/><use xlink:href="#b" x="-.004" y="6.488"/><use xlink:href="#2"/><use xlink:href="#3" y="2.171"/><use xlink:href="#4" y="4.342"/></svg><svg x="720"><use xlink:href="#a"/><use xlink:href="#b" x="-.004" y="6.488"/><use xlink:href="#2"/><use xlink:href="#3" y="2.171"/><use xlink:href="#4" y="4.342"/></svg><svg x="800"><use xlink:href="#a"/><use xlink:href="#b" x="-.004" y="8.659"/><use xlink:href="#2"/><use xlink:href="#3" y="2.171"/><use xlink:href="#4" y="4.342"/><use xlink:href="#5" y="6.513"/></svg><svg x="880"><use xlink:href="#a"/><use xlink:href="#b" x="-.004" y="6.488"/><use xlink:href="#2"/><use xlink:href="#3" y="2.171"/><use xlink:href="#4" y="4.342"/></svg><svg x="960"><use xlink:href="#a"/><use xlink:href="#b" x="-.004" y="8.659"/><use xlink:href="#2"/><use xlink:href="#3" y="2.171"/><use xlink:href="#4" y="4.342"/><use xlink:href="#6" y="6.513"/></svg><svg x="1040"><use xlink:href="#a"/><use xlink:href="#b" x="-.004" y="10.83"/><use xlink:href="#2"/><use xlink:href="#3" y="2.171"/><use xlink:href="#4" y="4.342"/><use xlink:href="#6" y="6.513"/><use xlink:href="#7" y="8.684"/></svg><svg x="1120"><use xlink:href="#a"/><use xlink:href="#b" x="-.004" y="8.659"/><use xlink:href="#2"/><use xlink:href="#3" y="2.171"/><use xlink:href="#4" y="4.342"/><use xlink:href="#6" y="6.513"/></svg><svg x="1200"><use xlink:href="#a"/><use xlink:href="#b" x="-.004" y="10.83"/><use xlink:href="#2"/><use xlink:href="#3" y="2.171"/><use xlink:href="#4" y="4.342"/><use xlink:href="#6" y="6.513"/><use xlink:href="#5" y="8.684"/></svg><svg x="1280"><use xlink:href="#a"/><use xlink:href="#b" x="-.004" y="8.659"/><use xlink:href="#2"/><use xlink:href="#3" y="2.171"/><use xlink:href="#4" y="4.342"/><use xlink:href="#6" y="6.513"/></svg><svg x="1360"><use xlink:href="#a"/><use xlink:href="#b" x="-.004" y="10.83"/><use xlink:href="#2"/><use xlink:href="#3" y="2.171"/><use xlink:href="#4" y="4.342"/><use xlink:href="#6" y="6.513"/><use xlink:href="#5" y="8.684"/></svg><svg x="1440"><use xlink:href="#a"/><use xlink:href="#b" x="-.004" y="8.659"/><use xlink:href="#2"/><use xlink:href="#3" y="2.171"/><use xlink:href="#4" y="4.342"/><use xlink:href="#6" y="6.513"/></svg><svg x="1520"><use xlink:href="#a"/><use xlink:href="#b" x="-.004" y="10.83"/><use xlink:href="#2"/><use xlink:href="#3" y="2.171"/><use xlink:href="#4" y="4.342"/><use xlink:href="#6" y="6.513"/><text y="10.354" class="f">⠁</text><text x="2.004" y="10.354" class="f">Creating</text><text x="11.022" y="10.354" class="f">container…</text></svg><svg x="1600"><use xlink:href="#a"/><use xlink:href="#b" x="-.004" y="10.83"/><use xlink:href="#2"/><use xlink:href="#3" y="2.171"/><use xlink:href="#4" y="4.342"/><use xlink:href="#6" y="6.513"/><text y="10.354" class="f">⠂</text><text x="2.004" y="10.354" class="f">Creating</text><text x="11.022" y="10.354" class="f">container…</text></svg><svg x="1680"><use xlink:href="#a"/><use xlink:href="#b" x="-.004" y="8.659"/><use xlink:href="#2"/><use xlink:href="#3" y="2.171"/><use xlink:href="#4" y="4.342"/><use xlink:href="#6" y="6.513"/></svg><svg x="1760"><use xlink:href="#a"/><use xlink:href="#b" x="-.004" y="10.83"/><use xlink:href="#2"/><use xlink:href="#3" y="2.171"/><use xlink:href="#4" y="4.342"/><use xlink:href="#6" y="6.513"/><use xlink:href="#8" y="8.684"/></svg><svg x="1840"><use xlink:href="#a"/><use xlink:href="#b" x="-.004" y="10.83"/><use xlink:href="#2"/><use xlink:href="#3" y="2.171"/><use xlink:href="#4" y="4.342"/><use xlink:href="#6" y="6.513"/><use xlink:href="#9" y="8.684"/></svg><svg x="1920"><use xlink:href="#a"/><use xlink:href="#b" x="-.004" y="10.83"/><use xlink:href="#2"/><use xlink:href="#3" y="2.171"/><use xlink:href="#4" y="4.342"/><use xlink:href="#6" y="6.513"/><use xlink:href="#10" y="8.684"/></svg><svg x="2000"><use xlink:href="#a"/><use xlink:href="#b" x="-.004" y="8.659"/><use xlink:href="#2"/><use xlink:href="#3" y="2.171"/><use xlink:href="#4" y="4.342"/><use xlink:href="#6" y="6.513"/></svg><svg x="2080"><use xlink:href="#a"/><use xlink:href="#b" x="-.004" y="10.83"/><use xlink:href="#2"/><use xlink:href="#3" y="2.171"/><use xlink:href="#4" y="4.342"/><use xlink:href="#6" y="6.513"/><use xlink:href="#11" y="8.684"/></svg><svg x="2160"><use xlink:href="#a"/><use xlink:href="#b" x="-.004" y="13.001"/><use xlink:href="#2"/><use xlink:href="#3" y="2.171"/><use xlink:href="#4" y="4.342"/><use xlink:href="#6" y="6.513"/><use xlink:href="#11" y="8.684"/><use xlink:href="#7" y="10.855"/></svg><svg x="2240"><use xlink:href="#a"/><use xlink:href="#b" x="-.004" y="10.83"/><use xlink:href="#2"/><use xlink:href="#3" y="2.171"/><use xlink:href="#4" y="4.342"/><use xlink:href="#6" y="6.513"/><use xlink:href="#11" y="8.684"/></svg><svg x="2320"><use xlink:href="#a"/><use xlink:href="#b" x="-.004" y="13.001"/><use xlink:href="#2"/><use xlink:href="#3" y="2.171"/><use xlink:href="#4" y="4.342"/><use xlink:href="#6" y="6.513"/><use xlink:href="#11" y="8.684"/><use xlink:href="#5" y="10.855"/></svg><svg x="2400"><use xlink:href="#a"/><use xlink:href="#b" x="-.004" y="10.83"/><use xlink:href="#2"/><use xlink:href="#3" y="2.171"/><use xlink:href="#4" y="4.342"/><use xlink:href="#6" y="6.513"/><use xlink:href="#11" y="8.684"/></svg><svg x="2480"><use xlink:href="#a"/><use xlink:href="#b" x="-.004" y="13.001"/><use xlink:href="#2"/><use xlink:href="#3" y="2.171"/><use xlink:href="#4" y="4.342"/><use xlink:href="#6" y="6.513"/><use xlink:href="#11" y="8.684"/><use xlink:href="#8" y="10.855"/></svg><svg x="2560"><use xlink:href="#a"/><use xlink:href="#b" x="-.004" y="13.001"/><use xlink:href="#2"/><use xlink:href="#3" y="2.171"/><use xlink:href="#4" y="4.342"/><use xlink:href="#6" y="6.513"/><use xlink:href="#11" y="8.684"/><use xlink:href="#9" y="10.855"/></svg><svg x="2640"><use xlink:href="#a"/><use xlink:href="#b" x="-.004" y="13.001"/><use xlink:href="#2"/><use xlink:href="#3" y="2.171"/><use xlink:href="#4" y="4.342"/><use xlink:href="#6" y="6.513"/><use xlink:href="#11" y="8.684"/><use xlink:href="#10" y="10.855"/></svg><svg x="2720"><use xlink:href="#a"/><use xlink:href="#b" x="-.004" y="13.001"/><use xlink:href="#2"/><use xlink:href="#3" y="2.171"/><use xlink:href="#4" y="4.342"/><use xlink:href="#6" y="6.513"/><use xlink:href="#11" y="8.684"/><text y="12.525" class="f">⠴</text><text x="2.004" y="12.525" class="f">Copying</text><text x="10.02" y="12.525" class="f">files</text><text x="16.032" y="12.525" class="f">into</text><text x="21.042" y="12.525" class="f">container…</text></svg><svg x="2800"><use xlink:href="#a"/><use xlink:href="#b" x="-.004" y="13.001"/><use xlink:href="#2"/><use xlink:href="#3" y="2.171"/><use xlink:href="#4" y="4.342"/><use xlink:href="#6" y="6.513"/><use xlink:href="#11" y="8.684"/><text y="12.525" class="f">⠤</text><text x="2.004" y="12.525" class="f">Copying</text><text x="10.02" y="12.525" class="f">files</text><text x="16.032" y="12.525" class="f">into</text><text x="21.042" y="12.525" class="f">container…</text></svg><svg x="2880"><use xlink:href="#a"/><use xlink:href="#b" x="-.004" y="13.001"/><use xlink:href="#2"/><use xlink:href="#3" y="2.171"/><use xlink:href="#4" y="4.342"/><use xlink:href="#6" y="6.513"/><use xlink:href="#11" y="8.684"/><use xlink:href="#12" y="10.855"/></svg><svg x="2960"><use xlink:href="#a"/><use xlink:href="#b" x="-.004" y="13.001"/><use xlink:href="#2"/><use xlink:href="#3" y="2.171"/><use xlink:href="#4" y="4.342"/><use xlink:href="#6" y="6.513"/><use xlink:href="#11" y="8.684"/><use xlink:href="#12" y="10.855"/></svg><svg x="3040"><use xlink:href="#a"/><use xlink:href="#b" x="-.004" y="10.83"/><use xlink:href="#2"/><use xlink:href="#3" y="2.171"/><use xlink:href="#4" y="4.342"/><use xlink:href="#6" y="6.513"/><use xlink:href="#11" y="8.684"/></svg><svg x="3120"><use xlink:href="#a"/><use xlink:href="#b" x="-.004" y="13.001"/><use xlink:href="#2"/><use xlink:href="#3" y="2.171"/><use xlink:href="#4" y="4.342"/><use xlink:href="#6" y="6.513"/><use xlink:href="#11" y="8.684"/><use xlink:href="#13" y="10.855"/></svg><svg x="3200"><use xlink:href="#a"/><use xlink:href="#b" x="-.004" y="17.343"/><use xlink:href="#2"/><use xlink:href="#3" y="2.171"/><use xlink:href="#4" y="4.342"/><use xlink:href="#6" y="6.513"/><use xlink:href="#11" y="8.684"/><use xlink:href="#13" y="10.855"/><use xlink:href="#14" y="13.026"/><text y="16.867" class="f">⠁</text><text x="2.004" y="16.867" class="f">Deleting</text><text x="11.022" y="16.867" class="f">container…</text></svg><svg x="3280"><use xlink:href="#a"/><use xlink:href="#b" x="-.004" y="15.172"/><use xlink:href="#2"/><use xlink:href="#3" y="2.171"/><use xlink:href="#4" y="4.342"/><use xlink:href="#6" y="6.513"/><use xlink:href="#11" y="8.684"/><use xlink:href="#13" y="10.855"/><use xlink:href="#14" y="13.026"/></svg><svg x="3360"><use xlink:href="#a"/><use xlink:href="#b" x="1.996" y="15.172"/><use xlink:href="#2"/><use xlink:href="#3" y="2.171"/><use xlink:href="#4" y="4.342"/><use xlink:href="#6" y="6.513"/><use xlink:href="#11" y="8.684"/><use xlink:href="#13" y="10.855"/><use xlink:href="#14" y="13.026"/><use xlink:href="#1" y="15.197"/></svg><svg x="3440"><use xlink:href="#a"/><use xlink:href="#b" x="-.004" y="17.343"/><use xlink:href="#2"/><use xlink:href="#3" y="2.171"/><use xlink:href="#4" y="4.342"/><use xlink:href="#6" y="6.513"/><use xlink:href="#11" y="8.684"/><use xlink:href="#13" y="10.855"/><use xlink:href="#14" y="13.026"/><text y="16.867" class="f">$</text><text x="2.004" y="16.867" class="f">exit</text></svg></svg></g></g></svg></svg>