<svg xmlns="http://www.w3.org/2000/svg" xmlns:xlink="http://www.w3.org/1999/xlink" width="840" height="363.94"><rect width="840" height="363.94" rx="5" ry="5" class="a"/><svg y="0%" x="0%"><circle cx="20" cy="20" r="6" fill="#ff5f58"/><circle cx="40" cy="20" r="6" fill="#ffbd2e"/><circle cx="60" cy="20" r="6" fill="#18c132"/></svg><svg height="303.94" viewBox="0 0 80 30.394" width="800" x="15" xmlns="http://www.w3.org/2000/svg" xmlns:xlink="http://www.w3.org/1999/xlink" y="50"><style>@keyframes k{0%{transform:translateX(0)}5.4%{transform:translateX(-80px)}9.3%{transform:translateX(-160px)}10.3%{transform:translateX(-240px)}11.2%{transform:translateX(-320px)}12.3%{transform:translateX(-400px)}13.8%{transform:translateX(-480px)}14.8%{transform:translateX(-560px)}15.7%{transform:translateX(-640px)}16.9%{transform:translateX(-720px)}18.5%{transform:translateX(-800px)}19.1%{transform:translateX(-880px)}20.1%{transform:translateX(-960px)}20.9%{transform:translateX(-1040px)}22%{transform:translateX(-1120px)}23.6%{transform:translateX(-1200px)}23.7%{transform:translateX(-1440px)}24.4%{transform:translateX(-1600px)}31.2%{transform:translateX(-1680px)}31.4%{transform:translateX(-1760px)}35.3%{transform:translateX(-1840px)}36.1%{transform:translateX(-1920px)}36.8%{transform:translateX(-2000px)}38.2%{transform:translateX(-2080px)}38.9%{transform:translateX(-2160px)}40.3%{transform:translateX(-2240px)}41.2%{transform:translateX(-2320px)}44.4%{transform:translateX(-2400px)}47.3%{transform:translateX(-2480px)}48.4%{transform:translateX(-2560px)}49.2%{transform:translateX(-2640px)}50.4%{transform:translateX(-2720px)}51.8%{transform:translateX(-2800px)}53.1%{transform:translateX(-2880px)}54%{transform:translateX(-2960px)}56.3%{transform:translateX(-3040px)}57.3%{transform:translateX(-3120px)}58%{transform:translateX(-3200px)}59.2%{transform:translateX(-3280px)}61%{transform:translateX(-3360px)}65%{transform:translateX(-3440px)}66.5%{transform:translateX(-3520px)}67.9%{transform:translateX(-3760px)}85.8%{transform:translateX(-3840px)}91.5%{transform:translateX(-3920px)}to{transform:translateX(-4000px)}}.a{fill:#282d35}.f{fill:#b9c0cb}.g{fill:#a8cc8c;font-weight:700}.h{fill:#d290e4}</style><g font-size="1.67" font-family="Monaco,Consolas,Menlo,'Bitstream Vera Sans Mono','Powerline Symbols',monospace"><defs><symbol id="1"><text y="1.67" class="f">$</text></symbol><symbol id="2"><text y="1.67" class="f">$</text><text x="2.004" y="1.67" class="f">toast</text></symbol><symbol id="3"><text y="1.67" class="f">$</text><text x="2.004" y="1.67" class="f">toast</text><text x="8.016" y="1.67" class="f">--shell</text></symbol><symbol id="4"><text y="1.67" class="g">[INFO]</text><text x="7.014" y="1.67" class="f">Ready</text><text x="13.026" y="1.67" class="f">to</text><text x="16.032" y="1.67" class="f">run</text><text x="20.04" y="1.67" class="f">1</text><text x="22.044" y="1.67" class="f">task:</text><text x="28.056" y="1.67" class="h">install_figlet</text><text x="42.084" y="1.67" class="f">.</text></symbol><symbol id="5"><text y="1.67" class="g">[INFO]</text><text x="7.014" y="1.67" class="f">Running</text><text x="15.03" y="1.67" class="f">task</text><text x="20.04" y="1.67" class="h">install_figlet</text><text x="34.068" y="1.67" class="f">…</text></symbol><symbol id="6"><text y="1.67" class="g">[INFO]</text><text x="7.014" y="1.67" class="f">Done.</text></symbol><symbol id="7"><text y="1.67" class="g">[INFO]</text><text x="7.014" y="1.67" class="f">Preparing</text><text x="17.034" y="1.67" class="f">a</text><text x="19.038" y="1.67" class="f">shell…</text></symbol><symbol id="8"><text y="1.67" class="f">root@3f19b26a779a:/#</text></symbol><symbol id="9"><text y="1.67" class="f">root@3f19b26a779a:/#</text><text x="21.042" y="1.67" class="f">figlet</text></symbol><symbol id="10"><text y="1.67" class="f">root@3f19b26a779a:/#</text><text x="21.042" y="1.67" class="f">figlet</text><text x="28.056" y="1.67" class="f">&apos;Hello,</text></symbol><symbol id="11"><text y="1.67" class="f">root@3f19b26a779a:/#</text><text x="21.042" y="1.67" class="f">figlet</text><text x="28.056" y="1.67" class="f">&apos;Hello,</text><text x="36.072" y="1.67" class="f">Toast!&apos;</text></symbol><symbol id="12"><text x="1.002" y="1.67" class="f">_</text><text x="5.01" y="1.67" class="f">_</text><text x="12.024" y="1.67" class="f">_</text><text x="14.028" y="1.67" class="f">_</text><text x="25.05" y="1.67" class="f">_____</text><text x="45.09" y="1.67" class="f">_</text><text x="49.098" y="1.67" class="f">_</text></symbol><symbol id="13"><text y="1.67" class="f">|</text><text x="2.004" y="1.67" class="f">|</text><text x="4.008" y="1.67" class="f">|</text><text x="6.012" y="1.67" class="f">|</text><text x="8.016" y="1.67" class="f">___|</text><text x="13.026" y="1.67" class="f">|</text><text x="15.03" y="1.67" class="f">|</text><text x="17.034" y="1.67" class="f">___</text><text x="24.048" y="1.67" class="f">|_</text><text x="29.058" y="1.67" class="f">_|__</text><text x="36.072" y="1.67" class="f">__</text><text x="39.078" y="1.67" class="f">_</text><text x="41.082" y="1.67" class="f">___|</text><text x="46.092" y="1.67" class="f">|_|</text><text x="50.1" y="1.67" class="f">|</text></symbol><symbol id="14"><text y="1.67" class="f">|</text><text x="2.004" y="1.67" class="f">|_|</text><text x="6.012" y="1.67" class="f">|/</text><text x="9.018" y="1.67" class="f">_</text><text x="11.022" y="1.67" class="f">\</text><text x="13.026" y="1.67" class="f">|</text><text x="15.03" y="1.67" class="f">|/</text><text x="18.036" y="1.67" class="f">_</text><text x="20.04" y="1.67" class="f">\</text><text x="26.052" y="1.67" class="f">|</text><text x="28.056" y="1.67" class="f">|/</text><text x="31.062" y="1.67" class="f">_</text><text x="33.066" y="1.67" class="f">\</text><text x="35.07" y="1.67" class="f">/</text><text x="37.074" y="1.67" class="f">_`</text><text x="40.08" y="1.67" class="f">/</text><text x="42.084" y="1.67" class="f">__|</text><text x="46.092" y="1.67" class="f">__|</text><text x="50.1" y="1.67" class="f">|</text></symbol><symbol id="15"><text y="1.67" class="f">|</text><text x="3.006" y="1.67" class="f">_</text><text x="6.012" y="1.67" class="f">|</text><text x="9.018" y="1.67" class="f">__/</text><text x="13.026" y="1.67" class="f">|</text><text x="15.03" y="1.67" class="f">|</text><text x="17.034" y="1.67" class="f">(_)</text><text x="21.042" y="1.67" class="f">|</text><text x="26.052" y="1.67" class="f">|</text><text x="28.056" y="1.67" class="f">|</text><text x="30.06" y="1.67" class="f">(_)</text><text x="34.068" y="1.67" class="f">|</text><text x="36.072" y="1.67" class="f">(_|</text><text x="40.08" y="1.67" class="f">\__</text><text x="44.088" y="1.67" class="f">\</text><text x="46.092" y="1.67" class="f">|_|_|</text></symbol><symbol id="16"><text y="1.67" class="f">|_|</text><text x="4.008" y="1.67" class="f">|_|\___|_|_|\___(</text><text x="22.044" y="1.67" class="f">)</text><text x="26.052" y="1.67" class="f">|_|\___/</text><text x="35.07" y="1.67" class="f">\__,_|___/\__(_)</text></symbol><symbol id="17"><text x="20.04" y="1.67" class="f">|/</text></symbol><symbol id="18"><text y="1.67" class="f">root@3f19b26a779a:/#</text><text x="21.042" y="1.67" class="f">exit</text></symbol><symbol id="a"><path fill="transparent" d="M0 0h80v14H0z"/></symbol><symbol id="b"><path fill="#6f7683" d="M0 0h1.102v2.171H0z"/></symbol></defs><path class="a" d="M0 0h80v30.394H0z"/><g style="animation-duration:9.950025s;animation-iteration-count:infinite;animation-name:k;animation-timing-function:steps(1,end)"><svg width="4080"><svg><use xlink:href="#a"/><use xlink:href="#b" x="-.004"/></svg><svg x="80"><use xlink:href="#a"/><use xlink:href="#b" x="1.996"/><use xlink:href="#1"/></svg><svg x="160"><use xlink:href="#a"/><use xlink:href="#b" x="2.996"/><text y="1.67" class="f">$</text><text x="2.004" y="1.67" class="f">t</text></svg><svg x="240"><use xlink:href="#a"/><use xlink:href="#b" x="3.996"/><text y="1.67" class="f">$</text><text x="2.004" y="1.67" class="f">to</text></svg><svg x="320"><use xlink:href="#a"/><use xlink:href="#b" x="4.996"/><text y="1.67" class="f">$</text><text x="2.004" y="1.67" class="f">toa</text></svg><svg x="400"><use xlink:href="#a"/><use xlink:href="#b" x="5.996"/><text y="1.67" class="f">$</text><text x="2.004" y="1.67" class="f">toas</text></svg><svg x="480"><use xlink:href="#a"/><use xlink:href="#b" x="6.996"/><use xlink:href="#2"/></svg><svg x="560"><use xlink:href="#a"/><use xlink:href="#b" x="7.996"/><use xlink:href="#2"/></svg><svg x="640"><use xlink:href="#a"/><use xlink:href="#b" x="8.996"/><text y="1.67" class="f">$</text><text x="2.004" y="1.67" class="f">toast</text><text x="8.016" y="1.67" class="f">-</text></svg><svg x="720"><use xlink:href="#a"/><use xlink:href="#b" x="9.996"/><text y="1.67" class="f">$</text><text x="2.004" y="1.67" class="f">toast</text><text x="8.016" y="1.67" class="f">--</text></svg><svg x="800"><use xlink:href="#a"/><use xlink:href="#b" x="10.996"/><text y="1.67" class="f">$</text><text x="2.004" y="1.67" class="f">toast</text><text x="8.016" y="1.67" class="f">--s</text></svg><svg x="880"><use xlink:href="#a"/><use xlink:href="#b" x="11.996"/><text y="1.67" class="f">$</text><text x="2.004" y="1.67" class="f">toast</text><text x="8.016" y="1.67" class="f">--sh</text></svg><svg x="960"><use xlink:href="#a"/><use xlink:href="#b" x="12.996"/><text y="1.67" class="f">$</text><text x="2.004" y="1.67" class="f">toast</text><text x="8.016" y="1.67" class="f">--she</text></svg><svg x="1040"><use xlink:href="#a"/><use xlink:href="#b" x="13.996"/><text y="1.67" class="f">$</text><text x="2.004" y="1.67" class="f">toast</text><text x="8.016" y="1.67" class="f">--shel</text></svg><svg x="1120"><use xlink:href="#a"/><use xlink:href="#b" x="14.996"/><use xlink:href="#3"/></svg><svg x="1200"><use xlink:href="#a"/><use xlink:href="#b" x="-.004" y="2.146"/><use xlink:href="#3"/></svg><svg x="1280"><use xlink:href="#a"/><use xlink:href="#b" x="-.004" y="6.488"/><use xlink:href="#3"/><use xlink:href="#4" y="2.171"/><use xlink:href="#5" y="4.342"/></svg><svg x="1360"><use xlink:href="#a"/><use xlink:href="#b" x="-.004" y="6.488"/><use xlink:href="#3"/><use xlink:href="#4" y="2.171"/><use xlink:href="#5" y="4.342"/></svg><svg x="1440"><use xlink:href="#a"/><use xlink:href="#b" x="-.004" y="8.659"/><use xlink:href="#3"/><use xlink:href="#4" y="2.171"/><use xlink:href="#5" y="4.342"/><text y="8.183" class="f">⠁</text><text x="2.004" y="8.183" class="f">Checking</text><text x="11.022" y="8.183" class="f">existence</text><text x="21.042" y="8.183" class="f">of</text><text x="24.048" y="8.183" class="f">image…</text></svg><svg x="1520"><use xlink:href="#a"/><use xlink:href="#b" x="-.004" y="6.488"/><use xlink:href="#3"/><use xlink:href="#4" y="2.171"/><use xlink:href="#5" y="4.342"/></svg><svg x="1600"><use xlink:href="#a"/><use xlink:href="#b" x="-.004" y="10.83"/><use xlink:href="#3"/><use xlink:href="#4" y="2.171"/><use xlink:href="#5" y="4.342"/><use xlink:href="#6" y="6.513"/><use xlink:href="#7" y="8.684"/></svg><svg x="1680"><use xlink:href="#a"/><use xlink:href="#b" x="20.996" y="10.83"/><use xlink:href="#3"/><use xlink:href="#4" y="2.171"/><use xlink:href="#5" y="4.342"/><use xlink:href="#6" y="6.513"/><use xlink:href="#7" y="8.684"/><use xlink:href="#8" y="10.855"/></svg><svg x="1760"><use xlink:href="#a"/><use xlink:href="#b" x="20.996" y="10.83"/><use xlink:href="#3"/><use xlink:href="#4" y="2.171"/><use xlink:href="#5" y="4.342"/><use xlink:href="#6" y="6.513"/><use xlink:href="#7" y="8.684"/><use xlink:href="#8" y="10.855"/></svg><svg x="1840"><use xlink:href="#a"/><use xlink:href="#b" x="21.996" y="10.83"/><use xlink:href="#3"/><use xlink:href="#4" y="2.171"/><use xlink:href="#5" y="4.342"/><use xlink:href="#6" y="6.513"/><use xlink:href="#7" y="8.684"/><text y="12.525" class="f">root@3f19b26a779a:/#</text><text x="21.042" y="12.525" class="f">f</text></svg><svg x="1920"><use xlink:href="#a"/><use xlink:href="#b" x="22.996" y="10.83"/><use xlink:href="#3"/><use xlink:href="#4" y="2.171"/><use xlink:href="#5" y="4.342"/><use xlink:href="#6" y="6.513"/><use xlink:href="#7" y="8.684"/><text y="12.525" class="f">root@3f19b26a779a:/#</text><text x="21.042" y="12.525" class="f">fi</text></svg><svg x="2000"><use xlink:href="#a"/><use xlink:href="#b" x="23.996" y="10.83"/><use xlink:href="#3"/><use xlink:href="#4" y="2.171"/><use xlink:href="#5" y="4.342"/><use xlink:href="#6" y="6.513"/><use xlink:href="#7" y="8.684"/><text y="12.525" class="f">root@3f19b26a779a:/#</text><text x="21.042" y="12.525" class="f">fig</text></svg><svg x="2080"><use xlink:href="#a"/><use xlink:href="#b" x="24.996" y="10.83"/><use xlink:href="#3"/><use xlink:href="#4" y="2.171"/><use xlink:href="#5" y="4.342"/><use xlink:href="#6" y="6.513"/><use xlink:href="#7" y="8.684"/><text y="12.525" class="f">root@3f19b26a779a:/#</text><text x="21.042" y="12.525" class="f">figl</text></svg><svg x="2160"><use xlink:href="#a"/><use xlink:href="#b" x="25.996" y="10.83"/><use xlink:href="#3"/><use xlink:href="#4" y="2.171"/><use xlink:href="#5" y="4.342"/><use xlink:href="#6" y="6.513"/><use xlink:href="#7" y="8.684"/><text y="12.525" class="f">root@3f19b26a779a:/#</text><text x="21.042" y="12.525" class="f">figle</text></svg><svg x="2240"><use xlink:href="#a"/><use xlink:href="#b" x="26.996" y="10.83"/><use xlink:href="#3"/><use xlink:href="#4" y="2.171"/><use xlink:href="#5" y="4.342"/><use xlink:href="#6" y="6.513"/><use xlink:href="#7" y="8.684"/><use xlink:href="#9" y="10.855"/></svg><svg x="2320"><use xlink:href="#a"/><use xlink:href="#b" x="27.996" y="10.83"/><use xlink:href="#3"/><use xlink:href="#4" y="2.171"/><use xlink:href="#5" y="4.342"/><use xlink:href="#6" y="6.513"/><use xlink:href="#7" y="8.684"/><use xlink:href="#9" y="10.855"/></svg><svg x="2400"><use xlink:href="#a"/><use xlink:href="#b" x="28.996" y="10.83"/><use xlink:href="#3"/><use xlink:href="#4" y="2.171"/><use xlink:href="#5" y="4.342"/><use xlink:href="#6" y="6.513"/><use xlink:href="#7" y="8.684"/><text y="12.525" class="f">root@3f19b26a779a:/#</text><text x="21.042" y="12.525" class="f">figlet</text><text x="28.056" y="12.525" class="f">&apos;</text></svg><svg x="2480"><use xlink:href="#a"/><use xlink:href="#b" x="29.996" y="10.83"/><use xlink:href="#3"/><use xlink:href="#4" y="2.171"/><use xlink:href="#5" y="4.342"/><use xlink:href="#6" y="6.513"/><use xlink:href="#7" y="8.684"/><text y="12.525" class="f">root@3f19b26a779a:/#</text><text x="21.042" y="12.525" class="f">figlet</text><text x="28.056" y="12.525" class="f">&apos;H</text></svg><svg x="2560"><use xlink:href="#a"/><use xlink:href="#b" x="30.996" y="10.83"/><use xlink:href="#3"/><use xlink:href="#4" y="2.171"/><use xlink:href="#5" y="4.342"/><use xlink:href="#6" y="6.513"/><use xlink:href="#7" y="8.684"/><text y="12.525" class="f">root@3f19b26a779a:/#</text><text x="21.042" y="12.525" class="f">figlet</text><text x="28.056" y="12.525" class="f">&apos;He</text></svg><svg x="2640"><use xlink:href="#a"/><use xlink:href="#b" x="31.996" y="10.83"/><use xlink:href="#3"/><use xlink:href="#4" y="2.171"/><use xlink:href="#5" y="4.342"/><use xlink:href="#6" y="6.513"/><use xlink:href="#7" y="8.684"/><text y="12.525" class="f">root@3f19b26a779a:/#</text><text x="21.042" y="12.525" class="f">figlet</text><text x="28.056" y="12.525" class="f">&apos;Hel</text></svg><svg x="2720"><use xlink:href="#a"/><use xlink:href="#b" x="32.996" y="10.83"/><use xlink:href="#3"/><use xlink:href="#4" y="2.171"/><use xlink:href="#5" y="4.342"/><use xlink:href="#6" y="6.513"/><use xlink:href="#7" y="8.684"/><text y="12.525" class="f">root@3f19b26a779a:/#</text><text x="21.042" y="12.525" class="f">figlet</text><text x="28.056" y="12.525" class="f">&apos;Hell</text></svg><svg x="2800"><use xlink:href="#a"/><use xlink:href="#b" x="33.996" y="10.83"/><use xlink:href="#3"/><use xlink:href="#4" y="2.171"/><use xlink:href="#5" y="4.342"/><use xlink:href="#6" y="6.513"/><use xlink:href="#7" y="8.684"/><text y="12.525" class="f">root@3f19b26a779a:/#</text><text x="21.042" y="12.525" class="f">figlet</text><text x="28.056" y="12.525" class="f">&apos;Hello</text></svg><svg x="2880"><use xlink:href="#a"/><use xlink:href="#b" x="34.996" y="10.83"/><use xlink:href="#3"/><use xlink:href="#4" y="2.171"/><use xlink:href="#5" y="4.342"/><use xlink:href="#6" y="6.513"/><use xlink:href="#7" y="8.684"/><use xlink:href="#10" y="10.855"/></svg><svg x="2960"><use xlink:href="#a"/><use xlink:href="#b" x="35.996" y="10.83"/><use xlink:href="#3"/><use xlink:href="#4" y="2.171"/><use xlink:href="#5" y="4.342"/><use xlink:href="#6" y="6.513"/><use xlink:href="#7" y="8.684"/><use xlink:href="#10" y="10.855"/></svg><svg x="3040"><use xlink:href="#a"/><use xlink:href="#b" x="36.996" y="10.83"/><use xlink:href="#3"/><use xlink:href="#4" y="2.171"/><use xlink:href="#5" y="4.342"/><use xlink:href="#6" y="6.513"/><use xlink:href="#7" y="8.684"/><text y="12.525" class="f">root@3f19b26a779a:/#</text><text x="21.042" y="12.525" class="f">figlet</text><text x="28.056" y="12.525" class="f">&apos;Hello,</text><text x="36.072" y="12.525" class="f">T</text></svg><svg x="3120"><use xlink:href="#a"/><use xlink:href="#b" x="37.996" y="10.83"/><use xlink:href="#3"/><use xlink:href="#4" y="2.171"/><use xlink:href="#5" y="4.342"/><use xlink:href="#6" y="6.513"/><use xlink:href="#7" y="8.684"/><text y="12.525" class="f">root@3f19b26a779a:/#</text><text x="21.042" y="12.525" class="f">figlet</text><text x="28.056" y="12.525" class="f">&apos;Hello,</text><text x="36.072" y="12.525" class="f">To</text></svg><svg x="3200"><use xlink:href="#a"/><use xlink:href="#b" x="38.996" y="10.83"/><use xlink:href="#3"/><use xlink:href="#4" y="2.171"/><use xlink:href="#5" y="4.342"/><use xlink:href="#6" y="6.513"/><use xlink:href="#7" y="8.684"/><text y="12.525" class="f">root@3f19b26a779a:/#</text><text x="21.042" y="12.525" class="f">figlet</text><text x="28.056" y="12.525" class="f">&apos;Hello,</text><text x="36.072" y="12.525" class="f">Toa</text></svg><svg x="3280"><use xlink:href="#a"/><use xlink:href="#b" x="39.996" y="10.83"/><use xlink:href="#3"/><use xlink:href="#4" y="2.171"/><use xlink:href="#5" y="4.342"/><use xlink:href="#6" y="6.513"/><use xlink:href="#7" y="8.684"/><text y="12.525" class="f">root@3f19b26a779a:/#</text><text x="21.042" y="12.525" class="f">figlet</text><text x="28.056" y="12.525" class="f">&apos;Hello,</text><text x="36.072" y="12.525" class="f">Toas</text></svg><svg x="3360"><use xlink:href="#a"/><use xlink:href="#b" x="40.996" y="10.83"/><use xlink:href="#3"/><use xlink:href="#4" y="2.171"/><use xlink:href="#5" y="4.342"/><use xlink:href="#6" y="6.513"/><use xlink:href="#7" y="8.684"/><text y="12.525" class="f">root@3f19b26a779a:/#</text><text x="21.042" y="12.525" class="f">figlet</text><text x="28.056" y="12.525" class="f">&apos;Hello,</text><text x="36.072" y="12.525" class="f">Toast</text></svg><svg x="3440"><use xlink:href="#a"/><use xlink:href="#b" x="41.996" y="10.83"/><use xlink:href="#3"/><use xlink:href="#4" y="2.171"/><use xlink:href="#5" y="4.342"/><use xlink:href="#6" y="6.513"/><use xlink:href="#7" y="8.684"/><text y="12.525" class="f">root@3f19b26a779a:/#</text><text x="21.042" y="12.525" class="f">figlet</text><text x="28.056" y="12.525" class="f">&apos;Hello,</text><text x="36.072" y="12.525" class="f">Toast!</text></svg><svg x="3520"><use xlink:href="#a"/><use xlink:href="#b" x="42.996" y="10.83"/><use xlink:href="#3"/><use xlink:href="#4" y="2.171"/><use xlink:href="#5" y="4.342"/><use xlink:href="#6" y="6.513"/><use xlink:href="#7" y="8.684"/><use xlink:href="#11" y="10.855"/></svg><svg x="3600"><use xlink:href="#a"/><use xlink:href="#b" x="-.004" y="13.001"/><use xlink:href="#3"/><use xlink:href="#4" y="2.171"/><use xlink:href="#5" y="4.342"/><use xlink:href="#6" y="6.513"/><use xlink:href="#7" y="8.684"/><use xlink:href="#11" y="10.855"/></svg><svg x="3680"><use xlink:href="#a"/><use xlink:href="#b" x="-.004" y="26.027"/><use xlink:href="#3"/><use xlink:href="#4" y="2.171"/><use xlink:href="#5" y="4.342"/><use xlink:href="#6" y="6.513"/><use xlink:href="#7" y="8.684"/><use xlink:href="#11" y="10.855"/><use xlink:href="#12" y="13.026"/><use xlink:href="#13" y="15.197"/><use xlink:href="#14" y="17.368"/><use xlink:href="#15" y="19.539"/><use xlink:href="#16" y="21.71"/><use xlink:href="#17" y="23.881"/></svg><svg x="3760"><use xlink:href="#a"/><use xlink:href="#b" x="20.996" y="26.027"/><use xlink:href="#3"/><use xlink:href="#4" y="2.171"/><use xlink:href="#5" y="4.342"/><use xlink:href="#6" y="6.513"/><use xlink:href="#7" y="8.684"/><use xlink:href="#11" y="10.855"/><use xlink:href="#12" y="13.026"/><use xlink:href="#13" y="15.197"/><use xlink:href="#14" y="17.368"/><use xlink:href="#15" y="19.539"/><use xlink:href="#16" y="21.71"/><use xlink:href="#17" y="23.881"/><use xlink:href="#8" y="26.052"/></svg><svg x="3840"><use xlink:href="#a"/><use xlink:href="#b" x="-.004" y="28.198"/><use xlink:href="#3"/><use xlink:href="#4" y="2.171"/><use xlink:href="#5" y="4.342"/><use xlink:href="#6" y="6.513"/><use xlink:href="#7" y="8.684"/><use xlink:href="#11" y="10.855"/><use xlink:href="#12" y="13.026"/><use xlink:href="#13" y="15.197"/><use xlink:href="#14" y="17.368"/><use xlink:href="#15" y="19.539"/><use xlink:href="#16" y="21.71"/><use xlink:href="#17" y="23.881"/><use xlink:href="#18" y="26.052"/></svg><svg x="3920"><use xlink:href="#a"/><use xlink:href="#b" x="1.996" y="28.198"/><use xlink:href="#3"/><use xlink:href="#4" y="2.171"/><use xlink:href="#5" y="4.342"/><use xlink:href="#6" y="6.513"/><use xlink:href="#7" y="8.684"/><use xlink:href="#11" y="10.855"/><use xlink:href="#12" y="13.026"/><use xlink:href="#13" y="15.197"/><use xlink:href="#14" y="17.368"/><use xlink:href="#15" y="19.539"/><use xlink:href="#16" y="21.71"/><use xlink:href="#17" y="23.881"/><use xlink:href="#18" y="26.052"/><use xlink:href="#1" y="28.223"/></svg><svg x="4000"><use xlink:href="#a"/><use xlink:href="#b" x="-.004" y="28.198"/><use xlink:href="#4"/><use xlink:href="#5" y="2.171"/><use xlink:href="#6" y="4.342"/><use xlink:href="#7" y="6.513"/><use xlink:href="#11" y="8.684"/><use xlink:href="#12" y="10.855"/><use xlink:href="#13" y="13.026"/><use xlink:href="#14" y="15.197"/><use xlink:href="#15" y="17.368"/><use xlink:href="#16" y="19.539"/><use xlink:href="#17" y="21.71"/><use xlink:href="#18" y="23.881"/><text y="27.722" class="f">$</text><text x="2.004" y="27.722" class="f">exit</text></svg></svg></g></g></svg></svg>